# xmcd
#
# Track frame offsets:
#	150
#	19711
#	37913
#	55216
#	74989
#	101503
#	120820
#	136843
#	155167
#	180766
#	201107
#	220005
#	234255
#	248174
#	264493
#	281428
#	295230
#	313219
#	328993
#
# Disc length: 4585 seconds
#
# Revision: 1
# Processed by: cddbd v1.5.2PL0 Copyright (c) Steve Scherf et al.
# Submitted via: audiograbber 1.83.01
#
DISCID=1211e713
DTITLE=Billie Holiday - Lady Sings The Blues (1952-1957)
DYEAR=1900
DGENRE=Blues
TTITLE0=Please Don't Talk About M When I'm Gone
TTITLE1=It Had To Be You
TTITLE2=Nice Work If You Can Get It
TTITLE3=Come Rain Or Come Shine
TTITLE4=I Gotta Right To Sing The The Blues
TTITLE5=What's New?
TTITLE6=A Fine Romance
TTITLE7=I Hadn't Anyone Till You
TTITLE8=I Get A Kick Out Of You
TTITLE9=Everything I Have Is Yours
TTITLE10=Isn't Is A Lovely Day?
TTITLE11=Trav'lin' Light
TTITLE12=I Must Have That Man!
TTITLE13=Some Other Spring
TTITLE14=Lady Sing The Blues
TTITLE15=Strange Fruit
TTITLE16=God Bless The Child
TTITLE17=Good Morning Heartache
TTITLE18=No Good Man
EXTD=
EXTT0=
EXTT1=
EXTT2=
EXTT3=
EXTT4=
EXTT5=
EXTT6=
EXTT7=
EXTT8=
EXTT9=
EXTT10=
EXTT11=
EXTT12=
EXTT13=
EXTT14=
EXTT15=
EXTT16=
EXTT17=
EXTT18=
PLAYORDER=
